<svg width="40" height="40" viewBox="0 0 40 40" fill="none" xmlns="http://www.w3.org/2000/svg">
<path d="M39.9973 20.0007C39.9973 30.102 32.5099 38.4529 22.7832 39.808C21.8737 39.9341 20.9432 40 19.9987 40C18.9085 40 17.8378 39.9131 16.7952 39.7449C7.2731 38.2118 0.00012207 29.9548 0.00012207 20.0007C0.00012207 8.95491 8.95472 0 20.0001 0C31.0455 0 40.0001 8.95491 40.0001 20.0007H39.9973Z" fill="#1C1C1B"/>
<path d="M8.11129 8.82031L17.3349 21.1526L8.05383 31.1796H10.1432L18.2696 22.4012L24.8349 31.1796H31.944L22.2018 18.1536L30.8411 8.82031H28.7517L21.2685 16.905L15.2217 8.82031H8.11268H8.11129ZM11.183 10.359H14.4482L28.8694 29.6408H25.6043L11.183 10.359Z" fill="#FDFCF9"/>
</svg>
